<svg width="16" height="14" viewBox="0 0 16 14" fill="none" xmlns="http://www.w3.org/2000/svg">
    <path
        d="M9.12054 13.0623L8.33438 13.774C8.0015 14.0753 7.46323 14.0753 7.13389 13.774L0.24966 7.545C-0.0832199 7.24365 -0.0832199 6.75636 0.24966 6.45821L7.13389 0.226013C7.46677 -0.0753378 8.00504 -0.0753378 8.33438 0.226013L9.12054 0.937715C9.45696 1.24227 9.44988 1.73918 9.10638 2.03733L4.83915 5.71766H15.0168C15.4878 5.71766 15.8667 6.06068 15.8667 6.48706V7.51294C15.8667 7.93932 15.4878 8.28235 15.0168 8.28235H4.83915L9.10638 11.9627C9.45342 12.2608 9.46051 12.7577 9.12054 13.0623Z"
        fill="black" />
</svg>

