<svg width="25" height="15" viewBox="0 0 25 15" fill="none" xmlns="http://www.w3.org/2000/svg">
    <path
        d="M23.75 0H1.25C0.559766 0 0 0.559766 0 1.25V13.75C0 14.4402 0.559766 15 1.25 15H23.75C24.4402 15 25 14.4402 25 13.75V1.25C25 0.559766 24.4402 0 23.75 0ZM1.875 13.125V10.625C3.25586 10.625 4.375 11.7441 4.375 13.125H1.875ZM1.875 4.375V1.875H4.375C4.375 3.25586 3.25586 4.375 1.875 4.375ZM12.5 11.25C10.7738 11.25 9.375 9.5707 9.375 7.5C9.375 5.42891 10.7742 3.75 12.5 3.75C14.2258 3.75 15.625 5.42891 15.625 7.5C15.625 9.57148 14.2254 11.25 12.5 11.25ZM23.125 13.125H20.625C20.625 11.7441 21.7441 10.625 23.125 10.625V13.125ZM23.125 4.375C21.7441 4.375 20.625 3.25586 20.625 1.875H23.125V4.375Z"
        fill="#F42A41" />
</svg>
