<svg width="20" height="23" viewBox="0 0 20 23" fill="none" xmlns="http://www.w3.org/2000/svg">
<path d="M15.2143 2.875V3.375H15.7143H17.8571C18.7611 3.375 19.5 4.11402 19.5 5.03125V6.6875H0.5V5.03125C0.5 4.11402 1.2389 3.375 2.14286 3.375H4.28571H4.78571V2.875V0.71875C4.78571 0.596638 4.88622 0.5 5 0.5H6.42857C6.54235 0.5 6.64286 0.596638 6.64286 0.71875V2.875V3.375H7.14286H12.8571H13.3571V2.875V0.71875C13.3571 0.596638 13.4576 0.5 13.5714 0.5H15C15.1138 0.5 15.2143 0.596638 15.2143 0.71875V2.875ZM2.14286 22.5C1.2389 22.5 0.5 21.761 0.5 20.8438V9.125H19.5V20.8438C19.5 21.761 18.7611 22.5 17.8571 22.5H2.14286ZM14.8214 11C14.2477 11 13.7857 11.4694 13.7857 12.0391V13.8359C13.7857 14.4056 14.2477 14.875 14.8214 14.875H16.6071C17.1809 14.875 17.6429 14.4056 17.6429 13.8359V12.0391C17.6429 11.4694 17.1809 11 16.6071 11H14.8214ZM14.8214 16.75C14.2477 16.75 13.7857 17.2194 13.7857 17.7891V19.5859C13.7857 20.1556 14.2477 20.625 14.8214 20.625H16.6071C17.1809 20.625 17.6429 20.1556 17.6429 19.5859V17.7891C17.6429 17.2194 17.1809 16.75 16.6071 16.75H14.8214ZM9.10714 11C8.53343 11 8.07143 11.4694 8.07143 12.0391V13.8359C8.07143 14.4056 8.53343 14.875 9.10714 14.875H10.8929C11.4666 14.875 11.9286 14.4056 11.9286 13.8359V12.0391C11.9286 11.4694 11.4666 11 10.8929 11H9.10714ZM9.10714 16.75C8.53343 16.75 8.07143 17.2194 8.07143 17.7891V19.5859C8.07143 20.1556 8.53343 20.625 9.10714 20.625H10.8929C11.4666 20.625 11.9286 20.1556 11.9286 19.5859V17.7891C11.9286 17.2194 11.4666 16.75 10.8929 16.75H9.10714ZM3.39286 11C2.81914 11 2.35714 11.4694 2.35714 12.0391V13.8359C2.35714 14.4056 2.81914 14.875 3.39286 14.875H5.17857C5.75229 14.875 6.21429 14.4056 6.21429 13.8359V12.0391C6.21429 11.4694 5.75229 11 5.17857 11H3.39286ZM3.39286 16.75C2.81914 16.75 2.35714 17.2194 2.35714 17.7891V19.5859C2.35714 20.1556 2.81914 20.625 3.39286 20.625H5.17857C5.75229 20.625 6.21429 20.1556 6.21429 19.5859V17.7891C6.21429 17.2194 5.75229 16.75 5.17857 16.75H3.39286Z" stroke="#F42A41"/>
</svg>

