<svg width="13" height="10" viewBox="0 0 13 10" fill="none" xmlns="http://www.w3.org/2000/svg">
    <path
        d="M6.24989 7.81247C4.76846 7.81247 3.56926 6.6658 3.45891 5.21269L1.4101 3.62931C1.14077 3.9672 0.892917 4.32442 0.692919 4.71504C0.648241 4.80342 0.624962 4.90107 0.624962 5.0001C0.624962 5.09913 0.648241 5.19677 0.692919 5.28515C1.75209 7.35173 3.84894 8.74996 6.24989 8.74996C6.77547 8.74996 7.2825 8.67184 7.77117 8.54567L6.7577 7.7615C6.59032 7.79383 6.42036 7.81089 6.24989 7.81247ZM12.3791 8.94723L10.22 7.27849C10.8759 6.72575 11.4153 6.04809 11.8069 5.28496C11.8515 5.19658 11.8748 5.09893 11.8748 4.9999C11.8748 4.90087 11.8515 4.80323 11.8069 4.71485C10.7477 2.64827 8.65085 1.25004 6.24989 1.25004C5.24434 1.25126 4.25511 1.50441 3.37258 1.98636L0.887839 0.0658709C0.855438 0.0406578 0.818386 0.0220765 0.7788 0.0111889C0.739215 0.000301224 0.697872 -0.00267937 0.657134 0.0024174C0.616396 0.00751418 0.577061 0.0205884 0.541378 0.040893C0.505695 0.0611976 0.474363 0.0883346 0.449172 0.120753L0.0657774 0.614303C0.0149182 0.679729 -0.00787141 0.762677 0.0024207 0.844904C0.0127128 0.927131 0.0552438 1.0019 0.12066 1.05277L11.6119 9.93413C11.6443 9.95934 11.6814 9.97792 11.721 9.98881C11.7606 9.9997 11.8019 10.0027 11.8427 9.99758C11.8834 9.99249 11.9227 9.97941 11.9584 9.95911C11.9941 9.9388 12.0254 9.91167 12.0506 9.87925L12.4342 9.3857C12.485 9.32025 12.5078 9.23728 12.4975 9.15506C12.4871 9.07283 12.4446 8.99807 12.3791 8.94723ZM8.79088 6.17382L8.02331 5.58046C8.08795 5.39364 8.12224 5.19767 8.12487 5C8.12868 4.7106 8.06457 4.42434 7.93768 4.16422C7.81079 3.90409 7.62466 3.67735 7.39425 3.50221C7.16383 3.32706 6.89555 3.2084 6.61096 3.15575C6.32636 3.1031 6.03339 3.11793 5.75556 3.19904C5.87334 3.35863 5.93705 3.55167 5.9374 3.75001C5.93448 3.81601 5.9244 3.8815 5.90732 3.94532L4.46964 2.8342C4.96904 2.41686 5.59907 2.18801 6.24989 2.18753C6.61929 2.18732 6.98511 2.25993 7.32642 2.4012C7.66774 2.54246 7.97787 2.74962 8.23907 3.01082C8.50027 3.27203 8.70743 3.58215 8.8487 3.92347C8.98996 4.26479 9.06257 4.6306 9.06236 5C9.06236 5.42246 8.95905 5.8162 8.79088 6.17401V6.17382Z"
        fill="white" />
</svg>
