<svg width="16" height="18" viewBox="0 0 16 18" fill="none" xmlns="http://www.w3.org/2000/svg">
    <path
        d="M15.516 12.636C15.516 12.888 15.3 12.996 15.048 13.104C14.04 13.536 12.96 13.932 11.808 13.932C10.188 13.932 9.432 12.924 7.488 12.924C6.084 12.924 4.608 13.428 3.42 13.968C3.348 14.004 3.276 14.004 3.204 14.04V16.776C3.204 17.5285 2.63721 18 2.016 18C1.332 18 0.792 17.46 0.792 16.776V3.6C0.324 3.24 0 2.664 0 2.016C0 0.9 0.9 0 2.016 0C3.132 0 4.032 0.9 4.032 2.016C4.032 2.664 3.744 3.24 3.24 3.6V4.716C3.38498 4.6677 5.30606 3.708 7.272 3.708C9.56665 3.708 10.7059 4.68 11.736 4.68C13.104 4.68 14.616 3.708 14.976 3.708C15.264 3.708 15.516 3.924 15.516 4.176V12.636Z"
        fill="#F42A41" />
</svg>
