<svg width="25" height="20" viewBox="0 0 25 20" fill="none" xmlns="http://www.w3.org/2000/svg">
<path d="M12.1685 5.04345L4.167 11.6337V18.7464C4.167 18.9305 4.24015 19.1072 4.37038 19.2374C4.5006 19.3676 4.67722 19.4408 4.86139 19.4408L9.72473 19.4282C9.90829 19.4273 10.084 19.3537 10.2135 19.2236C10.343 19.0935 10.4156 18.9174 10.4156 18.7338V14.58C10.4156 14.3959 10.4888 14.2193 10.619 14.089C10.7493 13.9588 10.9259 13.8856 11.11 13.8856H13.8876C14.0718 13.8856 14.2484 13.9588 14.3786 14.089C14.5088 14.2193 14.582 14.3959 14.582 14.58V18.7308C14.5817 18.8221 14.5995 18.9127 14.6342 18.9972C14.669 19.0817 14.7201 19.1585 14.7846 19.2232C14.8491 19.2879 14.9258 19.3392 15.0101 19.3743C15.0945 19.4093 15.185 19.4273 15.2764 19.4273L20.138 19.4408C20.3221 19.4408 20.4988 19.3676 20.629 19.2374C20.7592 19.1072 20.8324 18.9305 20.8324 18.7464V11.6289L12.8326 5.04345C12.7385 4.96764 12.6214 4.9263 12.5006 4.9263C12.3798 4.9263 12.2626 4.96764 12.1685 5.04345ZM24.8078 9.5227L21.1796 6.53205V0.520793C21.1796 0.38267 21.1247 0.250205 21.027 0.152537C20.9294 0.0548692 20.7969 0 20.6588 0H18.2284C18.0903 0 17.9578 0.0548692 17.8602 0.152537C17.7625 0.250205 17.7076 0.38267 17.7076 0.520793V3.67203L13.8221 0.475224C13.4492 0.168381 12.9813 0.000613384 12.4984 0.000613384C12.0155 0.000613384 11.5476 0.168381 11.1747 0.475224L0.189004 9.5227C0.136268 9.56629 0.0926378 9.61984 0.0606055 9.6803C0.0285733 9.74075 0.00876702 9.80693 0.00231846 9.87504C-0.00413009 9.94315 0.00290544 10.0119 0.0230231 10.0773C0.0431407 10.1427 0.0759461 10.2034 0.119565 10.2562L1.22625 11.6015C1.26975 11.6544 1.32326 11.6982 1.3837 11.7304C1.44415 11.7626 1.51035 11.7826 1.57852 11.7891C1.64669 11.7957 1.71548 11.7888 1.78096 11.7687C1.84645 11.7487 1.90733 11.7159 1.96013 11.6723L12.1685 3.26407C12.2626 3.18826 12.3798 3.14692 12.5006 3.14692C12.6214 3.14692 12.7385 3.18826 12.8326 3.26407L23.0414 11.6723C23.0941 11.7159 23.1549 11.7487 23.2203 11.7688C23.2857 11.7889 23.3544 11.796 23.4225 11.7895C23.4906 11.7831 23.5568 11.7633 23.6173 11.7312C23.6777 11.6992 23.7313 11.6556 23.7749 11.6028L24.8815 10.2575C24.9251 10.2044 24.9578 10.1433 24.9777 10.0777C24.9975 10.012 25.0042 9.94302 24.9974 9.87474C24.9905 9.80646 24.9703 9.74021 24.9377 9.6798C24.9052 9.61938 24.861 9.566 24.8078 9.5227Z" fill="white"/>
</svg>

