<svg width="20" height="23" viewBox="0 0 20 23" fill="none" xmlns="http://www.w3.org/2000/svg">
<path d="M11.5 17.4375C11.5 15.2284 13.2909 13.4375 15.5 13.4375C17.7091 13.4375 19.5 15.2284 19.5 17.4375V18.975C19.5 20.9218 17.9218 22.5 15.975 22.5H15.025C13.0782 22.5 11.5 20.9218 11.5 18.975V17.4375Z" stroke="#F42A41"/>
<path d="M0.5 17.4375C0.5 15.2284 2.29086 13.4375 4.5 13.4375C6.70914 13.4375 8.5 15.2284 8.5 17.4375V18.975C8.5 20.9218 6.9218 22.5 4.975 22.5H4.025C2.0782 22.5 0.5 20.9218 0.5 18.975V17.4375Z" stroke="#F42A41"/>
<path d="M11.5 4.5C11.5 2.29086 13.2909 0.5 15.5 0.5C17.7091 0.5 19.5 2.29086 19.5 4.5V6.0375C19.5 7.9843 17.9218 9.5625 15.975 9.5625H15.025C13.0782 9.5625 11.5 7.9843 11.5 6.0375V4.5Z" stroke="#F42A41"/>
<path d="M0.5 4.5C0.5 2.29086 2.29086 0.5 4.5 0.5C6.70914 0.5 8.5 2.29086 8.5 4.5V6.0375C8.5 7.9843 6.9218 9.5625 4.975 9.5625H4.025C2.0782 9.5625 0.5 7.9843 0.5 6.0375V4.5Z" stroke="#F42A41"/>
</svg>

