<svg width="50" height="50" viewBox="0 0 50 50" fill="none" xmlns="http://www.w3.org/2000/svg">
    <circle cx="25" cy="25" r="24.5" stroke="#D02539" />
    <circle cx="25" cy="25" r="24" fill="white" />
    <path
        d="M35.75 18H13.25C12.5598 18 12 18.5598 12 19.25V31.75C12 32.4402 12.5598 33 13.25 33H35.75C36.4402 33 37 32.4402 37 31.75V19.25C37 18.5598 36.4402 18 35.75 18ZM13.875 31.125V28.625C15.2559 28.625 16.375 29.7441 16.375 31.125H13.875ZM13.875 22.375V19.875H16.375C16.375 21.2559 15.2559 22.375 13.875 22.375ZM24.5 29.25C22.7738 29.25 21.375 27.5707 21.375 25.5C21.375 23.4289 22.7742 21.75 24.5 21.75C26.2258 21.75 27.625 23.4289 27.625 25.5C27.625 27.5715 26.2254 29.25 24.5 29.25ZM35.125 31.125H32.625C32.625 29.7441 33.7441 28.625 35.125 28.625V31.125ZM35.125 22.375C33.7441 22.375 32.625 21.2559 32.625 19.875H35.125V22.375Z"
        fill="#F42A41" />
</svg>
