<svg width="16" height="16" viewBox="0 0 16 16" fill="none" xmlns="http://www.w3.org/2000/svg">
    <path
        d="M16 11.1429V15.1429C16.0003 15.2555 15.9783 15.3671 15.9353 15.4712C15.8924 15.5753 15.8292 15.6699 15.7496 15.7496C15.6699 15.8292 15.5753 15.8924 15.4712 15.9353C15.3671 15.9783 15.2555 16.0003 15.1429 16H11.1429C10.3789 16 9.99678 15.075 10.5357 14.5357L11.8286 13.2429L8 9.41428L4.17036 13.2464L5.46429 14.5357C6.00321 15.075 5.62107 16 4.85714 16H0.857145C0.744504 16.0003 0.632918 15.9783 0.528797 15.9353C0.424676 15.8924 0.330073 15.8292 0.250424 15.7496C0.170774 15.6699 0.107648 15.5753 0.0646731 15.4712C0.0216977 15.3671 -0.000279971 15.2555 2.69228e-06 15.1429V11.1429C2.69228e-06 10.3786 0.924645 9.99643 1.46429 10.5357L2.75679 11.8286L6.58786 8L2.75643 4.16786L1.46429 5.46429C0.925002 6.00357 2.69228e-06 5.62143 2.69228e-06 4.85714V0.857145C-0.000279971 0.744504 0.0216977 0.632918 0.0646731 0.528797C0.107648 0.424676 0.170774 0.330073 0.250424 0.250424C0.330073 0.170774 0.424676 0.107648 0.528797 0.0646731C0.632918 0.0216978 0.744504 -0.000279971 0.857145 2.69228e-06H4.85714C5.62107 2.69228e-06 6.00321 0.925002 5.46429 1.46429L4.17143 2.75714L8 6.58571L11.8296 2.75357L10.5357 1.46429C9.99678 0.925002 10.3789 2.69228e-06 11.1429 2.69228e-06H15.1429C15.2555 -0.000279971 15.3671 0.0216978 15.4712 0.0646731C15.5753 0.107648 15.6699 0.170774 15.7496 0.250424C15.8292 0.330073 15.8924 0.424676 15.9353 0.528797C15.9783 0.632918 16.0003 0.744504 16 0.857145V4.85714C16 5.62143 15.0754 6.00357 14.5357 5.46429L13.2432 4.17143L9.41214 8L13.2436 11.8321L14.5357 10.5393C15.075 9.99643 16 10.3786 16 11.1429Z"
        fill="#F42A41" />
</svg>
