<svg width="25" height="25" viewBox="0 0 25 25" fill="none" xmlns="http://www.w3.org/2000/svg">
<path d="M22.3937 12.4961L24.639 10.2986C25.3083 9.66496 24.9962 8.53889 24.1183 8.32893L21.0592 7.54817L21.9216 4.52009C22.1653 3.64909 21.344 2.82756 20.4733 3.07131L17.4462 3.93396L16.6658 0.87385C16.4592 0.00964087 15.3206 -0.306424 14.6968 0.352951L12.5 2.61574L10.3033 0.353C9.68657 -0.298904 8.54316 -0.000222493 8.33428 0.873899L7.55381 3.93401L4.52671 3.07136C3.65576 2.82751 2.83476 3.64934 3.07842 4.52014L3.94077 7.54822L0.881688 8.32898C0.00336748 8.53899 -0.308107 9.66526 0.360936 10.2986L2.6063 12.4961L0.360936 14.6936C-0.3084 15.3272 0.00370936 16.4533 0.881639 16.6633L3.94072 17.444L3.07837 20.4721C2.83467 21.3431 3.65596 22.1646 4.52666 21.9209L7.55371 21.0582L8.33418 24.1183C8.55093 25.0253 9.68652 25.2911 10.3032 24.6392L12.5 22.3931L14.6967 24.6392C15.3071 25.2978 16.4539 25.0048 16.6657 24.1183L17.4462 21.0582L20.4732 21.9209C21.3441 22.1647 22.1652 21.3429 21.9215 20.4721L21.0592 17.444L24.1183 16.6633C24.9965 16.4532 25.308 15.327 24.639 14.6936L22.3937 12.4961Z" fill="#F42A41"/>
<path d="M10.3964 16.3107L7.14644 13.0607C6.95119 12.8654 6.95119 12.5488 7.14644 12.3536L7.85353 11.6464C8.04879 11.4512 8.36539 11.4512 8.56064 11.6464L10.75 13.8358L15.4394 9.14644C15.6346 8.95119 15.9512 8.95119 16.1465 9.14644L16.8536 9.85355C17.0488 10.0488 17.0488 10.3654 16.8536 10.5607L11.1036 16.3107C10.9083 16.5059 10.5917 16.5059 10.3964 16.3107Z" fill="white"/>
</svg>

