<svg width="83" height="20" viewBox="0 0 83 20" fill="none" xmlns="http://www.w3.org/2000/svg">
    <rect width="83" height="20" rx="5" fill="white" />
    <path
        d="M18.6307 5.27273H21L20.071 10.8636C19.9631 11.5284 19.7102 12.1037 19.3125 12.5895C18.9176 13.0724 18.4148 13.446 17.804 13.7102C17.1932 13.9716 16.5142 14.1023 15.767 14.1023C15.0142 14.1023 14.3778 13.9716 13.858 13.7102C13.3381 13.446 12.9602 13.0724 12.7244 12.5895C12.4915 12.1037 12.429 11.5284 12.5369 10.8636L13.4659 5.27273H15.8352L14.9403 10.6591C14.8977 10.929 14.919 11.169 15.0043 11.3793C15.0895 11.5895 15.2273 11.7557 15.4176 11.8778C15.608 11.9972 15.8381 12.0568 16.108 12.0568C16.3807 12.0568 16.6321 11.9972 16.8622 11.8778C17.0952 11.7557 17.2884 11.5895 17.4418 11.3793C17.5952 11.169 17.6932 10.929 17.7358 10.6591L18.6307 5.27273Z"
        fill="#F42A41" />
    <path
        d="M20.3192 16.4545L21.8278 7.45455H24.163L23.9755 8.59659H24.0266C24.146 8.375 24.3022 8.17187 24.4954 7.98722C24.6914 7.79972 24.9215 7.65057 25.1857 7.53977C25.4528 7.42614 25.7482 7.36932 26.0721 7.36932C26.5039 7.36932 26.8945 7.48438 27.244 7.71449C27.5934 7.9446 27.8505 8.30682 28.0153 8.80114C28.18 9.29545 28.1971 9.9375 28.0664 10.7273C27.9414 11.483 27.7184 12.1094 27.3974 12.6065C27.0792 13.1037 26.7042 13.4744 26.2724 13.7188C25.8434 13.9631 25.396 14.0852 24.93 14.0852C24.6232 14.0852 24.3576 14.0355 24.1332 13.9361C23.9087 13.8338 23.7283 13.696 23.592 13.5227C23.4556 13.3466 23.3619 13.1477 23.3107 12.9261H23.2596L22.68 16.4545H20.3192ZM23.5835 10.7273C23.5323 11.0455 23.5281 11.321 23.5707 11.554C23.6161 11.7841 23.7056 11.9631 23.8391 12.0909C23.9755 12.2159 24.1516 12.2784 24.3675 12.2784C24.5835 12.2784 24.7766 12.2173 24.9471 12.0952C25.1175 11.9702 25.2624 11.7926 25.3817 11.5625C25.5011 11.3295 25.5891 11.0511 25.646 10.7273C25.6971 10.4034 25.7013 10.1264 25.6587 9.89631C25.6161 9.66335 25.5295 9.4858 25.3988 9.36364C25.2681 9.23864 25.0948 9.17614 24.8789 9.17614C24.663 9.17614 24.4656 9.23864 24.2866 9.36364C24.1104 9.4858 23.9613 9.66335 23.8391 9.89631C23.7198 10.1264 23.6346 10.4034 23.5835 10.7273ZM31.6406 14.1193C30.9304 14.1193 30.3452 13.9787 29.8849 13.6974C29.4276 13.4134 29.1065 13.0185 28.9219 12.5128C28.7372 12.0043 28.7003 11.4148 28.8111 10.7443C28.9219 10.0739 29.1534 9.4858 29.5057 8.98011C29.858 8.47159 30.3111 8.0767 30.8651 7.79545C31.419 7.51136 32.0526 7.36932 32.7656 7.36932C33.473 7.36932 34.0554 7.51136 34.5128 7.79545C34.973 8.0767 35.2955 8.47159 35.4801 8.98011C35.6676 9.4858 35.706 10.0739 35.5952 10.7443C35.4844 11.4148 35.2514 12.0043 34.8963 12.5128C34.5412 13.0185 34.0866 13.4134 33.5327 13.6974C32.9815 13.9787 32.3509 14.1193 31.6406 14.1193ZM31.9304 12.3807C32.1349 12.3807 32.321 12.3139 32.4886 12.1804C32.6591 12.0469 32.804 11.8565 32.9233 11.6094C33.0455 11.3622 33.1349 11.0682 33.1918 10.7273C33.2486 10.3835 33.2571 10.0895 33.2173 9.84517C33.1776 9.59801 33.0952 9.40767 32.9702 9.27415C32.8452 9.14062 32.6804 9.07386 32.4759 9.07386C32.2713 9.07386 32.0838 9.14062 31.9134 9.27415C31.7429 9.40767 31.598 9.59801 31.4787 9.84517C31.3594 10.0895 31.2713 10.3835 31.2145 10.7273C31.1577 11.0682 31.1477 11.3622 31.1847 11.6094C31.2244 11.8565 31.3068 12.0469 31.4318 12.1804C31.5597 12.3139 31.7259 12.3807 31.9304 12.3807ZM38.3651 14.0852C37.8991 14.0852 37.4901 13.9631 37.1378 13.7188C36.7884 13.4744 36.5369 13.1037 36.3835 12.6065C36.233 12.1094 36.2202 11.483 36.3452 10.7273C36.4759 9.9375 36.7045 9.29545 37.0312 8.80114C37.3608 8.30682 37.7386 7.9446 38.1648 7.71449C38.5938 7.48438 39.0241 7.36932 39.456 7.36932C39.7798 7.36932 40.054 7.42614 40.2784 7.53977C40.5057 7.65057 40.6861 7.79972 40.8196 7.98722C40.9531 8.17187 41.044 8.375 41.0923 8.59659H41.1264L41.6804 5.27273H44.0327L42.5838 14H40.2486L40.4276 12.9261H40.3764C40.2486 13.1477 40.0852 13.3466 39.8864 13.5227C39.6903 13.696 39.4645 13.8338 39.2088 13.9361C38.9531 14.0355 38.6719 14.0852 38.3651 14.0852ZM39.5327 12.2784C39.7486 12.2784 39.9446 12.2159 40.1207 12.0909C40.2969 11.9631 40.446 11.7841 40.5682 11.554C40.6903 11.321 40.777 11.0455 40.8281 10.7273C40.8821 10.4034 40.8864 10.1264 40.8409 9.89631C40.7955 9.66335 40.7045 9.4858 40.5682 9.36364C40.4347 9.23864 40.2599 9.17614 40.044 9.17614C39.8281 9.17614 39.6335 9.23864 39.4602 9.36364C39.2869 9.4858 39.1406 9.66335 39.0213 9.89631C38.9048 10.1264 38.8196 10.4034 38.7656 10.7273C38.7116 11.0511 38.7045 11.3295 38.7443 11.5625C38.7869 11.7926 38.875 11.9702 39.0085 12.0952C39.142 12.2173 39.3168 12.2784 39.5327 12.2784ZM46.858 14.1193C46.1591 14.1193 45.5795 13.9858 45.1193 13.7188C44.6591 13.4489 44.3352 13.0625 44.1477 12.5597C43.9602 12.054 43.9261 11.4489 44.0455 10.7443C44.1591 10.0682 44.3935 9.47727 44.7486 8.97159C45.1065 8.46591 45.5568 8.07244 46.0994 7.79119C46.6449 7.50994 47.2557 7.36932 47.9318 7.36932C48.4261 7.36932 48.8594 7.44602 49.2315 7.59943C49.6065 7.75284 49.9119 7.97585 50.1477 8.26847C50.3835 8.56108 50.5426 8.91477 50.625 9.32955C50.7102 9.74148 50.7102 10.2074 50.625 10.7273L50.5398 11.2727H44.6932L44.8977 9.97727H48.5795C48.608 9.78977 48.5895 9.625 48.5241 9.48295C48.4616 9.33807 48.3608 9.22585 48.2216 9.14631C48.0852 9.06392 47.9205 9.02273 47.7273 9.02273C47.5341 9.02273 47.3523 9.06392 47.1818 9.14631C47.0142 9.22869 46.8707 9.34375 46.7514 9.49148C46.6349 9.6392 46.5568 9.8125 46.517 10.0114L46.2614 11.375C46.2273 11.5852 46.2401 11.7727 46.2997 11.9375C46.3594 12.1023 46.4631 12.2315 46.6108 12.3253C46.7585 12.419 46.9489 12.4659 47.1818 12.4659C47.3409 12.4659 47.4915 12.4446 47.6335 12.402C47.7784 12.3565 47.9063 12.2912 48.017 12.206C48.1307 12.1179 48.2216 12.0114 48.2898 11.8864H50.4375C50.2841 12.3409 50.0412 12.7358 49.7088 13.071C49.3793 13.4034 48.973 13.6619 48.4901 13.8466C48.0099 14.0284 47.4659 14.1193 46.858 14.1193ZM57.7383 9.58523H55.6246C55.636 9.44886 55.6119 9.33239 55.5522 9.2358C55.4925 9.1392 55.4087 9.06534 55.3008 9.0142C55.1957 8.96307 55.0763 8.9375 54.9428 8.9375C54.7099 8.9375 54.4982 8.99006 54.3079 9.09517C54.1175 9.19744 54.011 9.33239 53.9883 9.5C53.9741 9.56534 53.9954 9.62642 54.0522 9.68324C54.109 9.74006 54.2582 9.79261 54.4996 9.84091L55.7951 10.0795C56.4428 10.1989 56.9144 10.4162 57.2099 10.7315C57.5082 11.044 57.6161 11.4574 57.5337 11.9716C57.457 12.4176 57.261 12.8011 56.9457 13.1222C56.6303 13.4432 56.2298 13.6903 55.744 13.8636C55.261 14.0341 54.7269 14.1193 54.1417 14.1193C53.1104 14.1193 52.3377 13.9134 51.8235 13.5014C51.3121 13.0895 51.0792 12.5511 51.1246 11.8864H53.4087C53.4144 12.0994 53.4854 12.2599 53.6218 12.3679C53.761 12.473 53.9457 12.5284 54.1758 12.5341C54.4258 12.5426 54.6445 12.4929 54.832 12.3849C55.0195 12.2741 55.1246 12.1364 55.1474 11.9716C55.1559 11.8778 55.1147 11.8068 55.0238 11.7585C54.9357 11.7102 54.7667 11.6619 54.5167 11.6136L53.3917 11.4091C52.744 11.2926 52.2724 11.0597 51.9769 10.7102C51.6815 10.358 51.5792 9.90909 51.6701 9.36364C51.744 8.92898 51.9201 8.56392 52.1985 8.26847C52.4798 7.97301 52.8491 7.75 53.3065 7.59943C53.7638 7.44602 54.2923 7.36932 54.8917 7.36932C55.8718 7.36932 56.6133 7.56676 57.1161 7.96165C57.6218 8.35369 57.8292 8.89489 57.7383 9.58523ZM63.0884 7.45455L62.7987 9.15909H58.4862L58.7759 7.45455H63.0884ZM59.8668 5.88636H62.2191L61.2219 11.8949C61.2077 11.9858 61.2106 12.0625 61.2305 12.125C61.2504 12.1847 61.2901 12.2301 61.3498 12.2614C61.4123 12.2898 61.4947 12.304 61.5969 12.304C61.6651 12.304 61.7489 12.2955 61.8484 12.2784C61.9478 12.2585 62.0231 12.2443 62.0742 12.2358L62.1424 13.8892C62.0231 13.9233 61.8626 13.9616 61.6609 14.0043C61.462 14.0497 61.2305 14.0795 60.9663 14.0938C60.4151 14.1193 59.9663 14.0611 59.6197 13.919C59.2759 13.777 59.0373 13.5554 58.9038 13.2543C58.7731 12.9503 58.7504 12.571 58.8356 12.1165L59.8668 5.88636ZM64.7642 14.1023C64.3494 14.1023 63.9929 14.0341 63.6946 13.8977C63.3991 13.7585 63.1832 13.5483 63.0469 13.267C62.9134 12.983 62.8835 12.625 62.9574 12.1932C63.017 11.8352 63.1293 11.5298 63.294 11.277C63.4588 11.0241 63.6634 10.8168 63.9077 10.6548C64.152 10.4929 64.4261 10.3693 64.7301 10.2841C65.0369 10.196 65.3608 10.1392 65.7017 10.1136C66.071 10.0852 66.3707 10.0497 66.6009 10.0071C66.831 9.96449 67.0028 9.90625 67.1165 9.83239C67.2301 9.75852 67.2983 9.65909 67.321 9.53409V9.51705C67.3466 9.34659 67.3011 9.21591 67.1847 9.125C67.071 9.03409 66.9119 8.98864 66.7074 8.98864C66.4858 8.98864 66.294 9.03693 66.1321 9.13352C65.973 9.23011 65.8636 9.38068 65.804 9.58523H63.6392C63.7301 9.1875 63.9162 8.82102 64.1974 8.4858C64.4815 8.14773 64.858 7.87784 65.3267 7.67614C65.7983 7.47159 66.3608 7.36932 67.0142 7.36932C67.4801 7.36932 67.8892 7.42472 68.2415 7.53551C68.5938 7.64347 68.8849 7.79545 69.1151 7.99148C69.348 8.18466 69.5114 8.41193 69.6051 8.6733C69.7017 8.93182 69.7244 9.21307 69.6733 9.51705L68.9233 14H66.7244L66.8778 13.0795H66.8267C66.6563 13.3239 66.4645 13.5213 66.2514 13.6719C66.0412 13.8224 65.8111 13.9318 65.5611 14C65.3139 14.0682 65.0483 14.1023 64.7642 14.1023ZM65.7869 12.6193C65.9631 12.6193 66.1364 12.5824 66.3068 12.5085C66.4773 12.4347 66.6236 12.3281 66.7457 12.1889C66.8679 12.0497 66.946 11.8807 66.9801 11.6818L67.0653 11.1364C67.0028 11.1619 66.9332 11.1861 66.8565 11.2088C66.7827 11.2287 66.7045 11.2486 66.6222 11.2685C66.5426 11.2884 66.4574 11.3068 66.3665 11.3239C66.2784 11.3409 66.1875 11.358 66.0938 11.375C65.9062 11.4034 65.7486 11.4503 65.6207 11.5156C65.4929 11.5781 65.3935 11.6562 65.3224 11.75C65.2514 11.8409 65.2074 11.9432 65.1903 12.0568C65.1648 12.2358 65.206 12.375 65.3139 12.4744C65.4247 12.571 65.5824 12.6193 65.7869 12.6193Z"
        fill="#006A4E" />
</svg>
